G04 EAGLE Gerber RS-274X export*
G75*
%MOMM*%
%FSLAX34Y34*%
%LPD*%
%INSolderpaste Top*%
%IPPOS*%
%AMOC8*
5,1,8,0,0,1.08239X$1,22.5*%
G01*
%ADD10R,1.100000X1.000000*%
%ADD11R,1.500000X0.600000*%
%ADD12R,0.600000X1.500000*%
%ADD13R,2.500000X0.800000*%
%ADD14R,0.800000X0.800000*%
%ADD15R,1.000000X1.100000*%


D10*
X229480Y71120D03*
X212480Y71120D03*
X176920Y71120D03*
X193920Y71120D03*
D11*
X224200Y198180D03*
X224200Y190180D03*
X224200Y182180D03*
X224200Y174180D03*
X224200Y166180D03*
X224200Y158180D03*
X224200Y150180D03*
X224200Y142180D03*
D12*
X238700Y127680D03*
X246700Y127680D03*
X254700Y127680D03*
X262700Y127680D03*
X270700Y127680D03*
X278700Y127680D03*
X286700Y127680D03*
X294700Y127680D03*
D11*
X309200Y142180D03*
X309200Y150180D03*
X309200Y158180D03*
X309200Y166180D03*
X309200Y174180D03*
X309200Y182180D03*
X309200Y190180D03*
X309200Y198180D03*
D12*
X294700Y212680D03*
X286700Y212680D03*
X278700Y212680D03*
X270700Y212680D03*
X262700Y212680D03*
X254700Y212680D03*
X246700Y212680D03*
X238700Y212680D03*
D13*
X57760Y161870D03*
X57760Y141330D03*
X57760Y187108D03*
X57760Y116600D03*
D14*
X348100Y187960D03*
X363100Y187960D03*
X345560Y198120D03*
X360560Y198120D03*
D10*
X148980Y215900D03*
X165980Y215900D03*
D15*
X388620Y141360D03*
X388620Y158360D03*
X261620Y77860D03*
X261620Y94860D03*
X281940Y77860D03*
X281940Y94860D03*
D10*
X425840Y177800D03*
X442840Y177800D03*
X425840Y109220D03*
X442840Y109220D03*
X423300Y147320D03*
X440300Y147320D03*
X440300Y210820D03*
X423300Y210820D03*
D15*
X388620Y179460D03*
X388620Y196460D03*
X312420Y94860D03*
X312420Y77860D03*
X121920Y100530D03*
X121920Y83350D03*
X101600Y100530D03*
X101600Y83350D03*
M02*
