G04 EAGLE Gerber RS-274X export*
G75*
%MOMM*%
%FSLAX34Y34*%
%LPD*%
%INSoldermask Top*%
%IPPOS*%
%AMOC8*
5,1,8,0,0,1.08239X$1,22.5*%
G01*
%ADD10R,1.303200X1.203200*%
%ADD11R,1.711200X1.711200*%
%ADD12C,1.711200*%
%ADD13R,1.703200X0.803200*%
%ADD14R,0.803200X1.703200*%
%ADD15C,3.759200*%
%ADD16R,2.703200X1.003200*%
%ADD17C,1.981200*%
%ADD18C,1.303200*%
%ADD19C,1.003200*%
%ADD20R,1.003200X1.003200*%
%ADD21R,1.203200X1.303200*%
%ADD22P,1.869504X8X292.500000*%
%ADD23C,1.854200*%
%ADD24C,3.003200*%
%ADD25C,0.959600*%


D10*
X229480Y71120D03*
X212480Y71120D03*
X176920Y71120D03*
X193920Y71120D03*
D11*
X91370Y134620D03*
D12*
X177870Y134620D03*
D11*
X91370Y165100D03*
D12*
X177870Y165100D03*
D13*
X224200Y198180D03*
X224200Y190180D03*
X224200Y182180D03*
X224200Y174180D03*
X224200Y166180D03*
X224200Y158180D03*
X224200Y150180D03*
X224200Y142180D03*
D14*
X238700Y127680D03*
X246700Y127680D03*
X254700Y127680D03*
X262700Y127680D03*
X270700Y127680D03*
X278700Y127680D03*
X286700Y127680D03*
X294700Y127680D03*
D13*
X309200Y142180D03*
X309200Y150180D03*
X309200Y158180D03*
X309200Y166180D03*
X309200Y174180D03*
X309200Y182180D03*
X309200Y190180D03*
X309200Y198180D03*
D14*
X294700Y212680D03*
X286700Y212680D03*
X278700Y212680D03*
X270700Y212680D03*
X262700Y212680D03*
X254700Y212680D03*
X246700Y212680D03*
X238700Y212680D03*
D15*
X459740Y271780D03*
X408940Y271780D03*
D16*
X57760Y161870D03*
X57760Y141330D03*
X57760Y187108D03*
X57760Y116600D03*
D17*
X38450Y210100D02*
X20670Y210100D01*
X20670Y93100D02*
X38450Y93100D01*
D18*
X30260Y174100D03*
X30260Y129100D03*
D19*
X33560Y93100D03*
X37560Y93100D03*
X25560Y93100D03*
X21560Y93100D03*
X33560Y210100D03*
X37560Y210100D03*
X25560Y210100D03*
X21560Y210100D03*
D15*
X444500Y30480D03*
X393700Y30480D03*
X299720Y271780D03*
X350520Y271780D03*
D20*
X348100Y187960D03*
X363100Y187960D03*
X345560Y198120D03*
X360560Y198120D03*
D10*
X148980Y215900D03*
X165980Y215900D03*
D21*
X388620Y141360D03*
X388620Y158360D03*
X261620Y77860D03*
X261620Y94860D03*
X281940Y77860D03*
X281940Y94860D03*
D10*
X425840Y177800D03*
X442840Y177800D03*
X425840Y109220D03*
X442840Y109220D03*
X423300Y147320D03*
X440300Y147320D03*
X440300Y210820D03*
X423300Y210820D03*
D21*
X388620Y179460D03*
X388620Y196460D03*
X312420Y94860D03*
X312420Y77860D03*
D22*
X504940Y211620D03*
X504940Y186220D03*
X504940Y160820D03*
X504940Y135420D03*
X504940Y110020D03*
X530340Y211620D03*
X530340Y186220D03*
X530340Y160820D03*
X530340Y135420D03*
X530340Y110020D03*
D23*
X231140Y33020D03*
X180340Y33020D03*
D21*
X121920Y100530D03*
X121920Y83350D03*
X101600Y100530D03*
X101600Y83350D03*
D24*
X40640Y259080D03*
X558800Y38100D03*
D25*
X127000Y114300D03*
X160020Y114300D03*
X256540Y165100D03*
X208280Y198120D03*
X71120Y210820D03*
X119380Y195580D03*
X284480Y180340D03*
X243840Y91440D03*
X86360Y111760D03*
X373380Y157480D03*
X350520Y157480D03*
X289560Y149860D03*
X259080Y149860D03*
X474980Y198120D03*
X469900Y167640D03*
X288488Y111760D03*
X403860Y177800D03*
X332740Y106680D03*
X406400Y147320D03*
X325120Y236220D03*
X246380Y236220D03*
X340360Y223520D03*
X256540Y228600D03*
X447040Y73660D03*
X297180Y106680D03*
X375920Y142240D03*
X261620Y195580D03*
X279400Y111760D03*
X441960Y88900D03*
M02*
